HIERARCHY
ROOT joint_0
{
	OFFSET 0.000000 0.000000 0.000000
	CHANNELS 6 Xposition Yposition Zposition Zrotation Yrotation Xrotation 
	JOINT joint_1
	{
		OFFSET 0.511002 1.944000 108.288940
		CHANNELS 3 Zrotation Yrotation Xrotation
		JOINT joint_2
		{
			OFFSET -9.074005 1.512993 98.440063
			CHANNELS 3 Zrotation Yrotation Xrotation
			JOINT joint_3
			{
				OFFSET -8.590996 1.815002 98.366943
				CHANNELS 3 Zrotation Yrotation Xrotation
				JOINT joint_4
				{
					OFFSET 2.489998 3.531998 136.462036
					CHANNELS 3 Zrotation Yrotation Xrotation
					JOINT joint_5
					{
						OFFSET 22.708000 2.955002 80.357056
						CHANNELS 3 Zrotation Yrotation Xrotation
						End Site
						{
							OFFSET 0.000000 0.000000 0.000000
						}
					}
				}
				JOINT joint_6
				{
					OFFSET 2.860001 -27.684998 77.234009
					CHANNELS 3 Zrotation Yrotation Xrotation
					JOINT joint_7
					{
						OFFSET 5.449997 -131.244003 -18.851929
						CHANNELS 3 Zrotation Yrotation Xrotation
						JOINT joint_8
						{
							OFFSET 35.757000 -24.661995 -264.074097
							CHANNELS 3 Zrotation Yrotation Xrotation
							JOINT joint_9
							{
								OFFSET 49.392001 -1.747002 -239.960938
								CHANNELS 3 Zrotation Yrotation Xrotation
								End Site
								{
									OFFSET 0.000000 0.000000 0.000000
								}
							}
						}
					}
				}
				JOINT joint_10
				{
					OFFSET -0.127998 31.625000 75.753052
					CHANNELS 3 Zrotation Yrotation Xrotation
					JOINT joint_11
					{
						OFFSET -5.618004 131.132996 -19.557007
						CHANNELS 3 Zrotation Yrotation Xrotation
						JOINT joint_12
						{
							OFFSET 46.488998 30.127991 -261.826050
							CHANNELS 3 Zrotation Yrotation Xrotation
							JOINT joint_13
							{
								OFFSET 66.021003 0.474030 -235.934937
								CHANNELS 3 Zrotation Yrotation Xrotation
								End Site
								{
									OFFSET 0.000000 0.000000 0.000000
								}
							}
						}
					}
				}
			}
		}
	}
	JOINT joint_14
	{
		OFFSET 15.887001 -78.871004 -94.561035
		CHANNELS 3 Zrotation Yrotation Xrotation
		JOINT joint_15
		{
			OFFSET -4.133003 6.714001 -473.615967
			CHANNELS 3 Zrotation Yrotation Xrotation
			JOINT joint_16
			{
				OFFSET -19.541000 5.340000 -399.613007
				CHANNELS 3 Zrotation Yrotation Xrotation
				JOINT joint_17
				{
					OFFSET 164.317001 41.657999 -73.195000
					CHANNELS 3 Zrotation Yrotation Xrotation
					End Site
					{
						OFFSET 0.000000 0.000000 0.000000
					}
				}
			}
		}
	}
	JOINT joint_18
	{
		OFFSET 6.513000 77.960991 -96.406982
		CHANNELS 3 Zrotation Yrotation Xrotation
		JOINT joint_19
		{
			OFFSET -10.660004 -8.518997 -473.485016
			CHANNELS 3 Zrotation Yrotation Xrotation
			JOINT joint_20
			{
				OFFSET -36.967995 -11.098999 -398.260010
				CHANNELS 3 Zrotation Yrotation Xrotation
				JOINT joint_21
				{
					OFFSET 166.067997 30.363998 -74.785000
					CHANNELS 3 Zrotation Yrotation Xrotation
					End Site
					{
						OFFSET 0.000000 0.000000 0.000000
					}
				}
			}
		}
	}
}
MOTION
Frames: 10
Frame Time: 0.016667
-2424.847412 928.632385 1060.368042 2.127211 -0.733140 0.350755 -0.463515 0.561926 0.944751 -0.557566 -0.107173 -0.196437 -0.529129 0.106665 0.173913 -0.101305 1.254623 0.196342 0.000000 0.000000 0.000000 2.379684 -2.195077 0.746710 -0.292798 -2.055576 -5.044060 0.703614 -0.077748 3.454346 0.000000 0.000000 0.000000 -3.844408 -0.316093 -1.681502 0.970152 0.490096 0.447994 1.854979 -1.276281 6.569232 0.000000 0.000000 0.000000 -4.025799 1.433081 -2.177786 -4.079733 -0.775618 -0.423650 -4.005032 0.160432 -1.817213 0.000000 0.000000 0.000000 -0.052557 0.243216 1.669065 -0.001104 -0.005139 -0.293261 -0.033188 0.551476 -0.115756 0.000000 0.000000 0.000000 
-2425.090820 928.551025 1060.355957 2.133760 -0.743805 0.358044 -0.466630 0.580440 0.944001 -0.560361 -0.109693 -0.197008 -0.531973 0.111752 0.174402 -0.100602 1.246542 0.194928 0.000000 0.000000 0.000000 2.390673 -2.199832 0.764707 -0.293966 -2.059672 -5.052111 0.702166 -0.077250 3.447204 0.000000 0.000000 0.000000 -3.845810 -0.317574 -1.699563 0.971871 0.490149 0.454352 1.856426 -1.276635 6.574333 0.000000 0.000000 0.000000 -4.027357 1.427099 -2.180718 -4.081084 -0.769688 -0.425614 -4.006471 0.161807 -1.818213 0.000000 0.000000 0.000000 -0.055037 0.238893 1.667058 -0.003632 -0.006268 -0.295764 -0.036031 0.566866 -0.119848 0.000000 0.000000 0.000000 
-2425.331543 928.467712 1060.343018 2.136930 -0.752863 0.364796 -0.468635 0.595073 0.942892 -0.562055 -0.111409 -0.197362 -0.533665 0.114641 0.175067 -0.100251 1.241154 0.194412 0.000000 0.000000 0.000000 2.404177 -2.203331 0.782973 -0.295255 -2.062220 -5.061974 0.701043 -0.074671 3.441816 0.000000 0.000000 0.000000 -3.848951 -0.317587 -1.716105 0.973623 0.491858 0.460660 1.857281 -1.277552 6.577260 0.000000 0.000000 0.000000 -4.027873 1.419232 -2.183387 -4.081369 -0.763567 -0.426530 -4.006822 0.162737 -1.818619 0.000000 0.000000 0.000000 -0.056913 0.233995 1.667063 -0.005435 -0.008846 -0.300637 -0.038437 0.583039 -0.123887 0.000000 0.000000 0.000000 
-2425.571045 928.384399 1060.328979 2.138015 -0.760863 0.370855 -0.469842 0.606954 0.942810 -0.563200 -0.111979 -0.198811 -0.534671 0.117167 0.175828 -0.100098 1.236501 0.194507 0.000000 0.000000 0.000000 2.418720 -2.206820 0.801758 -0.296595 -2.064679 -5.073096 0.700142 -0.071242 3.437586 0.000000 0.000000 0.000000 -3.852240 -0.317558 -1.731710 0.975381 0.493603 0.467293 1.857877 -1.278822 6.579267 0.000000 0.000000 0.000000 -4.027917 1.410275 -2.185448 -4.081168 -0.757720 -0.426748 -4.006655 0.163779 -1.818827 0.000000 0.000000 0.000000 -0.058114 0.228863 1.668667 -0.006462 -0.012783 -0.307308 -0.040293 0.599146 -0.127667 0.000000 0.000000 0.000000 
-2425.817627 928.299988 1060.314941 2.140247 -0.769831 0.377392 -0.470780 0.623156 0.939832 -0.563567 -0.114113 -0.198516 -0.535161 0.120795 0.175957 -0.099647 1.233059 0.193385 0.000000 0.000000 0.000000 2.429163 -2.212242 0.822268 -0.297918 -2.069789 -5.085466 0.699314 -0.068442 3.433662 0.000000 0.000000 0.000000 -3.857787 -0.320024 -1.746444 0.977037 0.493195 0.475184 1.858320 -1.279873 6.580755 0.000000 0.000000 0.000000 -4.028075 1.402980 -2.188104 -4.081146 -0.753890 -0.426930 -4.006622 0.165669 -1.819306 0.000000 0.000000 0.000000 -0.059728 0.224163 1.669179 -0.007953 -0.016614 -0.312675 -0.042484 0.616031 -0.131739 0.000000 0.000000 0.000000 
-2426.072998 928.213379 1060.301025 2.143421 -0.781001 0.384264 -0.469888 0.645715 0.933576 -0.561471 -0.118069 -0.195848 -0.533687 0.127731 0.173878 -0.098694 1.229810 0.190447 0.000000 0.000000 0.000000 2.428629 -2.220985 0.845442 -0.298912 -2.079954 -5.097748 0.698290 -0.066379 3.428632 0.000000 0.000000 0.000000 -3.869619 -0.326875 -1.758590 0.978423 0.489230 0.483994 1.858906 -1.280182 6.582768 0.000000 0.000000 0.000000 -4.028382 1.399584 -2.191190 -4.081411 -0.754226 -0.426722 -4.006766 0.169372 -1.820323 0.000000 0.000000 0.000000 -0.061407 0.221613 1.668319 -0.009538 -0.021227 -0.315940 -0.044603 0.633310 -0.135851 0.000000 0.000000 0.000000 
-2426.335449 928.126709 1060.285034 2.147161 -0.794011 0.391448 -0.468390 0.674524 0.925357 -0.558329 -0.124453 -0.191653 -0.531535 0.135393 0.169811 -0.098077 1.228150 0.188482 0.000000 0.000000 0.000000 2.423494 -2.231659 0.870452 -0.299747 -2.092833 -5.110545 0.697353 -0.064654 3.423979 0.000000 0.000000 0.000000 -3.883256 -0.336009 -1.767956 0.979497 0.483075 0.492535 1.859472 -1.280435 6.584750 0.000000 0.000000 0.000000 -4.028851 1.398849 -2.194849 -4.081924 -0.756621 -0.426168 -4.007123 0.172811 -1.821366 0.000000 0.000000 0.000000 -0.063271 0.220690 1.666330 -0.011338 -0.026095 -0.317694 -0.046801 0.650663 -0.140012 0.000000 0.000000 0.000000 
-2426.601074 928.046936 1060.267944 2.149952 -0.806465 0.398890 -0.468130 0.704387 0.919211 -0.556728 -0.131203 -0.188993 -0.530629 0.143920 0.167844 -0.096920 1.222756 0.185108 0.000000 0.000000 0.000000 2.424477 -2.243707 0.894173 -0.300939 -2.106217 -5.125997 0.696701 -0.064157 3.420714 0.000000 0.000000 0.000000 -3.892323 -0.345939 -1.781216 0.980900 0.475733 0.502892 1.859881 -1.282403 6.586175 0.000000 0.000000 0.000000 -4.028886 1.395522 -2.198646 -4.081898 -0.755638 -0.427014 -4.007088 0.175080 -1.821935 0.000000 0.000000 0.000000 -0.064844 0.217817 1.664149 -0.012916 -0.028243 -0.320366 -0.048786 0.667145 -0.143918 0.000000 0.000000 0.000000 
-2426.869873 927.978088 1060.246948 2.151313 -0.818092 0.406796 -0.469682 0.734293 0.917592 -0.557667 -0.135875 -0.189464 -0.531737 0.150837 0.167944 -0.096217 1.212183 0.184024 0.000000 0.000000 0.000000 2.435943 -2.256673 0.915842 -0.302731 -2.119058 -5.146525 0.697193 -0.065832 3.423116 0.000000 0.000000 0.000000 -3.893268 -0.355926 -1.797817 0.982527 0.467331 0.514008 1.859984 -1.287213 6.586549 0.000000 0.000000 0.000000 -4.028480 1.388303 -2.202494 -4.081260 -0.748899 -0.430389 -4.006734 0.173743 -1.821444 0.000000 0.000000 0.000000 -0.065882 0.212022 1.661384 -0.014077 -0.026187 -0.324182 -0.050342 0.681981 -0.147330 0.000000 0.000000 0.000000 
-2427.141846 927.916260 1060.224976 2.151903 -0.829481 0.414532 -0.472581 0.765210 0.918992 -0.560435 -0.140172 -0.192330 -0.534243 0.158684 0.170654 -0.095088 1.197117 0.182029 0.000000 0.000000 0.000000 2.454254 -2.271343 0.936089 -0.304862 -2.132634 -5.169963 0.697983 -0.068287 3.427007 0.000000 0.000000 0.000000 -3.888319 -0.366994 -1.818502 0.984411 0.457254 0.526956 1.859861 -1.293839 6.586162 0.000000 0.000000 0.000000 -4.027786 1.379117 -2.205895 -4.080238 -0.739251 -0.435315 -4.006140 0.171325 -1.820569 0.000000 0.000000 0.000000 -0.066555 0.204528 1.658792 -0.014932 -0.021275 -0.328822 -0.051591 0.695830 -0.150424 0.000000 0.000000 0.000000 
